<svg version="1.0" xmlns="http://www.w3.org/2000/svg" width="933.333" height="933.333" viewBox="0 0 700 700"><path d="M326.9 1.2c-.3 3.8-.4 182.6-.1 183.9.3 1.4 3.1 1.6 23.5 1.6h23.2l-.2-92.1c0-50.7-.1-92.7-.2-93.4C373 .3 367.7 0 350 0c-17.7 0-23 .3-23.1 1.2zm-140 92.7c-.4 2.5-.3 91.5.1 92 .8 1.3 46 1 46.1-.3.3-3.4.4-89.4.1-90.7-.3-1.4-3.1-1.6-23.3-1.6-12.6 0-22.9.3-23 .6zM59.2 234.2C35.1 237.8 12.9 256 4.4 279 0 291.1 0 288.6.3 426c.2 71.8.6 131.8 1 133.5.4 1.6 1.5 6.6 2.3 10.9 11.8 59 59.2 108.8 118.1 124.1 21.6 5.6 16.8 5.4 160.8 5.2 73.2-.2 134.1-.5 135.5-.9 1.4-.3 4.7-.9 7.4-1.3 14-1.9 38.4-10.9 53.2-19.6 17.4-10.3 36.2-26.6 46.4-40.4 2.5-3.3 4.7-6.2 5.1-6.5.3-.3 2.6-3.9 5.2-8 9.1-14.8 17.6-35.4 20.7-50.5 1.7-8 1.7-8.3 2.4-14 1.2-9.4 1.4-13 1.5-29.1l.1-16h34.3c18.8.1 37.8-.2 42.2-.6 28-2.7 50.5-20.7 60.2-48.3l2.8-8 .2-56.5c.2-46.8 0-57.7-1.2-63.5-2.3-10.8-4-15.1-10.1-24.5-11.2-17.4-29.5-29-49.9-31.4-2.2-.2-21.6-.5-43.2-.5l-39.2-.1-2.4-5.4c-9.4-20.4-27.2-34.6-50.3-40.2-4-1-437.7-1.2-444.2-.2zm437.3 46.9c5.7 1.4 12 6.9 14.7 12.7l2.1 4.7V421c0 67.4-.3 124.9-.7 127.8-1.3 10.4-1.8 12.8-4.2 21.2-11.1 37.3-41.6 67.7-78.8 78.5-16.7 4.8-16.3 4.8-150.6 4.8-136.9 0-132.7.1-150.6-5.4-43.6-13.5-75.9-52.8-81.1-98.9-.4-3-.6-60.4-.7-127.6 0-136.6-.5-127.3 7.2-134.6 7.5-7.2-10.7-6.7 225.5-6.8 152.1 0 214.1.3 217.2 1.1zM639 328.7c5.7 2.5 9.7 6.6 12.3 12.3 2 4.3 2 6.4 2 54.6 0 37.4-.3 51.3-1.2 54.7-1.7 5.9-6 11-11.8 13.9-4.8 2.3-5.1 2.3-42.5 2.4l-37.8.1v-69.8c0-45.6.3-69.8 1-70.1.5-.2 17.3-.3 37.3-.2 33.9.1 36.6.2 40.7 2.1z"/></svg>