<svg width="150" height="30" fill="none" xmlns="http://www.w3.org/2000/svg"><path d="M46 1.5c0 5.967-2 12-5 15.91C37 21.5 37 24 25.522 24S14 22.115 9.612 17.41C5.225 12.705 5 7.967 5 2h4c0 8.5 3.439 12.583 3.439 12.583s3.083 5.42 13.083 5.42S38 14.583 38 14.583 41.432 8.5 41.432 1.5H46z" fill="#2F2105"/><path d="M41.46 9.527a6.462 6.462 0 102.003-6.818l2.152 2.54a3.133 3.133 0 11-.972 3.306l-3.183.972z" fill="#2F2105"/><path d="M39 1.595c0 4.35-1.475 8.523-4.1 11.6C32.274 16.272 28.713 18 25 18s-7.274-1.728-9.9-4.805c-2.625-3.077-4.1-7.25-4.1-11.6 0 0 8 3.589 14 0s14 0 14 0z" fill="#FF912B"/><path d="M43.755 27H7.245C6.557 27 6 27.672 6 28.5S6.557 30 7.245 30h36.51c.688 0 1.245-.672 1.245-1.5s-.557-1.5-1.245-1.5z" fill="#2F2105"/><path d="M67.084 21.305c-1.445 0-2.701-.262-3.77-.788-1.068-.537-1.888-1.293-2.458-2.27-.57-.977-.856-2.112-.856-3.406 0-1.795.334-3.388 1.002-4.78.68-1.391 1.596-2.466 2.75-3.223a6.776 6.776 0 013.842-1.153c1.31 0 2.306.342 2.986 1.025.68.672 1.02 1.563 1.02 2.674 0 .745-.133 1.343-.4 1.794-.256.452-.626.678-1.111.678-.34 0-.608-.08-.802-.238-.194-.159-.291-.39-.291-.696 0-.11.024-.311.073-.604.073-.367.109-.66.109-.88 0-1.11-.589-1.666-1.766-1.666-.802 0-1.567.263-2.295.788s-1.317 1.3-1.766 2.325c-.45 1.014-.674 2.222-.674 3.626 0 1.465.407 2.6 1.22 3.406.813.794 2.015 1.19 3.606 1.19.789 0 1.584-.097 2.385-.293a19.273 19.273 0 002.695-.933c.183-.074.334-.11.456-.11a.49.49 0 01.437.22c.097.146.145.335.145.567 0 .745-.4 1.294-1.201 1.648-.862.379-1.76.66-2.696.843-.922.17-1.803.256-2.64.256zm7.349 0c-.753 0-1.354-.275-1.803-.824-.45-.55-.674-1.27-.674-2.16 0-.978.225-1.9.674-2.766.449-.879 1.044-1.581 1.784-2.106.753-.537 1.548-.806 2.386-.806.267 0 .443.055.528.165.097.098.176.28.237.55.255-.05.522-.074.801-.074.595 0 .892.214.892.641 0 .256-.09.867-.273 1.831-.279 1.404-.419 2.38-.419 2.93a.7.7 0 00.128.44c.097.11.218.165.364.165.23 0 .51-.147.838-.44.328-.305.77-.793 1.33-1.465.145-.17.309-.256.49-.256a.4.4 0 01.365.22c.097.146.146.347.146.604 0 .488-.116.867-.346 1.135a9.203 9.203 0 01-1.585 1.575c-.558.427-1.098.64-1.62.64a1.75 1.75 0 01-1.111-.402c-.328-.28-.577-.66-.747-1.135-.631 1.025-1.426 1.538-2.385 1.538zm.655-1.85c.267 0 .522-.158.765-.476.243-.317.419-.738.528-1.263l.674-3.37c-.51.012-.983.208-1.42.586-.425.367-.765.855-1.02 1.465a4.986 4.986 0 00-.383 1.941c0 .379.073.66.219.843.158.183.37.274.637.274zm12.747-3.369c.34 0 .51.256.51.77 0 .963-.753 1.446-2.258 1.446-.292 0-.71-.055-1.257-.165.158.757.285 1.6.382 2.527.11.916.164 1.672.164 2.27 0 1.32-.212 2.326-.637 3.022-.425.696-.983 1.044-1.675 1.044-.874 0-1.5-.623-1.876-1.868-.364-1.245-.546-3.125-.546-5.64 0-2.344.249-4.718.746-7.123.51-2.418 1.202-4.414 2.076-5.988C84.35 4.794 85.322 4 86.378 4c.57 0 1.014.256 1.33.77.327.512.49 1.202.49 2.068 0 2.87-1.705 5.994-5.116 9.376a31.674 31.674 0 00-.182 3.15c0 1.257.042 2.545.127 3.864.085 1.33.225 1.996.419 1.996.364 0 .546-.635.546-1.905 0-.952-.066-1.874-.2-2.765a34.96 34.96 0 00-.51-2.82c-.012-.159.037-.36.146-.604.121-.244.267-.458.437-.641.17-.183.322-.275.455-.275.243 0 .534.012.874.037.11.012.237.018.383.018.485 0 1.026-.043 1.62-.128l.31-.037c.11-.012.218-.018.328-.018zm-1.84-10.273c-.218 0-.491.372-.819 1.117-.316.745-.631 1.733-.947 2.966a46.262 46.262 0 00-.82 3.883c.972-1.111 1.718-2.265 2.24-3.461.522-1.209.79-2.338.802-3.388 0-.745-.152-1.117-.455-1.117zm7.495 11.866a.4.4 0 01.364.22c.097.146.146.348.146.604 0 .44-.103.818-.31 1.136-.34.524-.789.934-1.347 1.226-.547.293-1.202.44-1.967.44-1.165 0-2.07-.348-2.713-1.044-.644-.708-.965-1.66-.965-2.857 0-.842.176-1.623.528-2.344.352-.732.837-1.312 1.457-1.74a3.714 3.714 0 012.13-.64c.704 0 1.269.214 1.694.64.425.416.637.984.637 1.704 0 .842-.303 1.569-.91 2.179-.595.598-1.615 1.074-3.06 1.428.292.562.783.843 1.475.843.498 0 .905-.116 1.22-.348.328-.232.704-.623 1.13-1.172.145-.183.309-.275.491-.275zm-2.986-3.204c-.45 0-.832.262-1.148.787-.303.525-.455 1.16-.455 1.904v.037c.716-.17 1.28-.427 1.694-.77.412-.34.619-.738.619-1.19 0-.231-.067-.414-.2-.549a.629.629 0 00-.51-.22z" fill="#FF912B"/><path d="M105.365 21c-1.623 0-2.923-.303-3.9-.908-.977-.617-1.465-1.556-1.465-2.815 0-.666.116-1.175.348-1.526.232-.35.574-.526 1.025-.526.33 0 .599.085.806.254.208.17.311.387.311.654a3.3 3.3 0 01-.054.635c0 .049-.013.134-.037.255a3.87 3.87 0 00-.018.381c0 .545.274.95.824 1.217.561.266 1.343.4 2.344.4 1.037 0 1.849-.182 2.435-.545.586-.376.879-.896.879-1.562 0-.412-.134-.763-.403-1.054a3.143 3.143 0 00-1.007-.744c-.403-.206-.97-.454-1.703-.745-.94-.363-1.709-.708-2.307-1.035a4.93 4.93 0 01-1.52-1.326c-.415-.569-.623-1.271-.623-2.106 0-.872.232-1.647.696-2.325.476-.678 1.154-1.205 2.033-1.58.891-.375 1.935-.563 3.131-.563.891 0 1.709.133 2.454.4.745.254 1.337.647 1.776 1.18.452.533.678 1.186.678 1.961 0 .763-.116 1.338-.348 1.726a1.124 1.124 0 01-1.026.58c-.317 0-.586-.096-.805-.29a.912.912 0 01-.312-.69c0-.23.019-.442.055-.636a9.29 9.29 0 00.055-.69c0-.508-.25-.896-.751-1.162-.5-.266-1.123-.4-1.867-.4-1.05 0-1.856.194-2.418.582-.549.375-.824.908-.824 1.598 0 .46.141.853.421 1.18.293.327.654.6 1.081.817.427.218 1.025.479 1.794.781.928.376 1.673.715 2.235 1.018a4.356 4.356 0 011.428 1.234c.403.521.604 1.163.604 1.925 0 1.43-.549 2.531-1.648 3.306-1.086.763-2.545 1.144-4.377 1.144zm15.577-4.195c.158 0 .281.072.366.218.098.145.147.345.147.599 0 .484-.116.86-.348 1.126a7.76 7.76 0 01-1.722 1.58c-.622.412-1.337.617-2.142.617-2.491 0-3.736-1.737-3.736-5.212 0-.533.018-1.071.055-1.616h-.714c-.367 0-.617-.067-.751-.2-.122-.133-.183-.345-.183-.636 0-.678.274-1.017.824-1.017h1.044c.207-1.331.525-2.548.952-3.65.427-1.102.94-1.98 1.538-2.633.611-.654 1.264-.981 1.96-.981.512 0 .915.224 1.208.672.293.448.44 1.01.44 1.689 0 1.877-.794 3.511-2.381 4.904h2.051c.195 0 .336.042.421.127.086.084.128.242.128.472 0 .835-.689 1.253-2.069 1.253h-2.234a38.51 38.51 0 00-.037 1.416c0 1.26.147 2.144.44 2.652.305.509.781.763 1.428.763.525 0 .989-.158 1.392-.472.403-.315.879-.787 1.428-1.417.147-.17.312-.254.495-.254zm-3.205-10.062c-.183 0-.391.23-.622.69-.22.449-.434 1.078-.641 1.89a25.97 25.97 0 00-.495 2.67c.72-.618 1.258-1.309 1.612-2.071.366-.775.549-1.477.549-2.107 0-.714-.134-1.072-.403-1.072zm3.527 14.202c-.464 0-.794-.242-.989-.726-.183-.484-.275-1.26-.275-2.325 0-1.573.226-3.069.678-4.485.11-.352.287-.606.531-.763.256-.17.61-.254 1.062-.254.244 0 .415.03.513.09.097.06.146.176.146.346 0 .193-.091.63-.275 1.307a28.79 28.79 0 00-.293 1.271c-.073.364-.134.812-.183 1.344.403-1.041.855-1.889 1.355-2.542.501-.654.989-1.12 1.465-1.399.489-.278.934-.417 1.337-.417.794 0 1.191.393 1.191 1.18 0 .158-.055.539-.165 1.144-.098.485-.147.787-.147.908 0 .424.153.636.458.636.342 0 .781-.266 1.319-.8.158-.157.323-.235.494-.235a.4.4 0 01.366.218c.098.133.147.315.147.545 0 .448-.122.799-.367 1.053a5.056 5.056 0 01-1.208.908 3.017 3.017 0 01-1.447.363c-.647 0-1.141-.163-1.483-.49-.33-.327-.495-.769-.495-1.326 0-.182.019-.363.055-.545.025-.242.037-.405.037-.49 0-.194-.067-.29-.201-.29-.184 0-.428.205-.733.617-.293.4-.586.932-.879 1.598a12.96 12.96 0 00-.714 2.107c-.134.569-.293.956-.476 1.162-.171.194-.446.29-.824.29zm15.2-4.14c.159 0 .281.072.367.218.097.145.146.345.146.599 0 .484-.116.86-.348 1.126-.452.545-1.092 1.047-1.923 1.507-.818.46-1.697.69-2.637.69-1.281 0-2.276-.345-2.985-1.035-.708-.69-1.062-1.634-1.062-2.833 0-.835.177-1.61.531-2.324.354-.727.843-1.302 1.465-1.726a3.774 3.774 0 012.143-.635c.708 0 1.276.212 1.703.635.427.412.641.975.641 1.69 0 .835-.305 1.555-.916 2.16-.598.594-1.617 1.066-3.058 1.417.305.557.885.835 1.74.835.549 0 1.172-.187 1.868-.563a6.274 6.274 0 001.831-1.507c.146-.17.311-.254.494-.254zm-4.614-2.634c-.452 0-.837.26-1.154.781-.305.52-.458 1.15-.458 1.89v.035c.72-.17 1.288-.423 1.703-.762.415-.34.623-.733.623-1.18 0-.23-.067-.412-.202-.546-.122-.145-.293-.218-.512-.218zm11.803 2.634c.159 0 .281.072.367.218.097.145.146.345.146.599 0 .484-.116.86-.348 1.126-.451.545-1.092 1.047-1.923 1.507a5.29 5.29 0 01-2.637.69c-1.281 0-2.276-.345-2.984-1.035-.709-.69-1.063-1.634-1.063-2.833 0-.835.177-1.61.532-2.324.354-.727.842-1.302 1.464-1.726a3.776 3.776 0 012.143-.635c.708 0 1.276.212 1.703.635.427.412.641.975.641 1.69 0 .835-.305 1.555-.916 2.16-.598.594-1.617 1.066-3.058 1.417.305.557.885.835 1.74.835.549 0 1.172-.187 1.868-.563a6.274 6.274 0 001.831-1.507c.146-.17.311-.254.494-.254zm-4.614-2.634c-.452 0-.837.26-1.154.781-.305.52-.458 1.15-.458 1.89v.035c.721-.17 1.288-.423 1.703-.762.415-.34.623-.733.623-1.18 0-.23-.067-.412-.202-.546-.122-.145-.293-.218-.512-.218zm6.658-.054a36.376 36.376 0 00-.037 1.416c0 .872.043 1.556.128 2.053.098.484.25.835.458 1.053.22.206.519.309.897.309.196 0 .428-.06.696-.182a2.91 2.91 0 00.733-.472c.134-.121.268-.182.403-.182.146 0 .262.085.347.255.098.157.147.35.147.58 0 .23-.049.455-.147.673-.085.218-.219.4-.402.545a3.32 3.32 0 01-2.161.78c-1.16 0-2.009-.478-2.546-1.434-.537-.969-.805-2.228-.805-3.778 0-.533.018-1.071.055-1.616h-.715c-.366 0-.616-.067-.75-.2-.123-.133-.184-.345-.184-.636 0-.678.275-1.017.824-1.017h1.044c.208-1.331.525-2.548.952-3.65.428-1.102.941-1.98 1.539-2.633.61-.654 1.263-.981 1.959-.981.513 0 .916.224 1.209.672.293.448.439 1.01.439 1.689 0 1.877-.793 3.511-2.38 4.904h2.051c.195 0 .335.042.421.127.085.084.128.242.128.472 0 .835-.69 1.253-2.069 1.253h-2.234zm1.941-7.374c-.183 0-.391.23-.623.69-.22.449-.433 1.078-.641 1.89-.195.798-.36 1.688-.494 2.67.72-.618 1.257-1.309 1.611-2.071.366-.775.55-1.477.55-2.107 0-.714-.135-1.072-.403-1.072z" fill="#2F2105"/></svg>