<svg width="14" height="14" fill="none" xmlns="http://www.w3.org/2000/svg"><path d="M6.46 1.536c.187-.492.893-.492 1.08 0L8.748 4.88a.578.578 0 00.54.369h2.967c.549 0 .788.682.357 1.017l-2.112 1.9a.565.565 0 00-.188.637l.771 3.268c.188.525-.42.976-.88.653l-2.868-1.82a.584.584 0 00-.67 0l-2.869 1.82c-.459.323-1.067-.128-.88-.653l.772-3.268a.565.565 0 00-.188-.637l-2.112-1.9c-.431-.335-.191-1.017.356-1.017h2.968a.577.577 0 00.54-.37l1.207-3.344h0z" fill="#FFD057" stroke="#FFD057" stroke-linecap="round" stroke-linejoin="round"/></svg>