<svg width="22" height="22" fill="none" xmlns="http://www.w3.org/2000/svg"><path d="M10.427 1.633c.32-.844 1.53-.844 1.852 0l2.07 5.734a.99.99 0 00.926.633h5.087c.94 0 1.35 1.17.61 1.743L17.353 13a.969.969 0 00-.321 1.092l1.322 5.603c.322.9-.72 1.673-1.508 1.119l-4.917-3.12a1 1 0 00-1.15 0l-4.917 3.12c-.787.554-1.83-.22-1.508-1.119l1.322-5.603A.968.968 0 005.353 13l-3.62-3.257C.993 9.17 1.405 8 2.343 8H7.43a.989.989 0 00.926-.633l2.07-5.734h0z" fill="#FFD057" stroke="#FFD057" stroke-linecap="round" stroke-linejoin="round"/></svg>