<?xml version="1.0" standalone="no"?>
<!DOCTYPE svg PUBLIC "-//W3C//DTD SVG 20010904//EN"
 "http://www.w3.org/TR/2001/REC-SVG-20010904/DTD/svg10.dtd">
<svg version="1.0" xmlns="http://www.w3.org/2000/svg"
 width="700.000000pt" height="700.000000pt" viewBox="0 0 700.000000 700.000000"
 preserveAspectRatio="xMidYMid meet">
<metadata>
Created by potrace 1.14, written by Peter Selinger 2001-2017
</metadata>
<g transform="translate(0.000000,700.000000) scale(0.100000,-0.100000)"
fill="#000000" stroke="none">
<path d="M3269 6988 c-3 -38 -4 -1826 -1 -1839 3 -14 31 -16 235 -16 l232 0
-2 921 c0 507 -1 927 -2 934 -1 9 -54 12 -231 12 -177 0 -230 -3 -231 -12z"/>
<path d="M1869 6061 c-4 -25 -3 -915 1 -920 8 -13 460 -10 461 3 3 34 4 894 1
907 -3 14 -31 16 -233 16 -126 0 -229 -3 -230 -6z"/>
<path d="M592 4658 c-241 -36 -463 -218 -548 -448 -44 -121 -44 -96 -41 -1470
2 -718 6 -1318 10 -1335 4 -16 15 -66 23 -109 118 -590 592 -1088 1181 -1241
216 -56 168 -54 1608 -52 732 2 1341 5 1355 9 14 3 47 9 74 13 140 19 384 109
532 196 174 103 362 266 464 404 25 33 47 62 51 65 3 3 26 39 52 80 91 148
176 354 207 505 17 80 17 83 24 140 12 94 14 130 15 291 l1 160 343 0 c188 -1
378 2 422 6 280 27 505 207 602 483 l28 80 2 565 c2 468 0 577 -12 635 -23
108 -40 151 -101 245 -112 174 -295 290 -499 314 -22 2 -216 5 -432 5 l-392 1
-24 54 c-94 204 -272 346 -503 402 -40 10 -4377 12 -4442 2z m4373 -469 c57
-14 120 -69 147 -127 l21 -47 0 -1225 c0 -674 -3 -1249 -7 -1278 -13 -104 -18
-128 -42 -212 -111 -373 -416 -677 -788 -785 -167 -48 -163 -48 -1506 -48
-1369 0 -1327 -1 -1506 54 -436 135 -759 528 -811 989 -4 30 -6 604 -7 1276 0
1366 -5 1273 72 1346 75 72 -107 67 2255 68 1521 0 2141 -3 2172 -11z m1425
-476 c57 -25 97 -66 123 -123 20 -43 20 -64 20 -546 0 -374 -3 -513 -12 -547
-17 -59 -60 -110 -118 -139 -48 -23 -51 -23 -425 -24 l-378 -1 0 698 c0 456 3
698 10 701 5 2 173 3 373 2 339 -1 366 -2 407 -21z"/>
</g>
</svg>
