<svg width="32" height="32" viewBox="0 0 32 32" fill="none" xmlns="http://www.w3.org/2000/svg">
<path d="M6.66669 9.33337H25.0534C25.4259 9.33339 25.7943 9.41147 26.1349 9.56258C26.4754 9.71369 26.7805 9.93449 27.0305 10.2107C27.2805 10.487 27.4698 10.8125 27.5863 11.1664C27.7027 11.5203 27.7438 11.8947 27.7067 12.2654L26.9067 20.2654C26.8409 20.9234 26.5329 21.5335 26.0426 21.9772C25.5523 22.4209 24.9146 22.6667 24.2534 22.6667H11.52C10.9033 22.667 10.3056 22.4534 9.82861 22.0625C9.35164 21.6716 9.02489 21.1274 8.90402 20.5227L6.66669 9.33337Z" stroke="#1D1D1D" stroke-width="2" stroke-linejoin="round"/>
<path d="M21.3334 28H24M6.66669 9.33333L5.58669 5.00933C5.51446 4.721 5.34796 4.46508 5.11363 4.28221C4.8793 4.09934 4.59059 4.00001 4.29335 4H2.66669L6.66669 9.33333ZM10.6667 28H13.3334H10.6667Z" stroke="#1D1D1D" stroke-width="2" stroke-linecap="round" stroke-linejoin="round"/>
</svg>
